<svg width="40.000000" height="40.000000" viewBox="0 0 40 40" fill="none" xmlns="http://www.w3.org/2000/svg" xmlns:xlink="http://www.w3.org/1999/xlink">
	<desc>
			Created with Pixso.
	</desc>
	<defs>
		<clipPath id="clip25_24">
			<rect id="search" width="40.000000" height="40.000000" fill="white" fill-opacity="0"/>
		</clipPath>
	</defs>
	<rect id="search" width="40.000000" height="40.000000" fill="#FFFFFF" fill-opacity="0"/>
	<g clip-path="url(#clip25_24)">
		<path id="矢量 267" d="M25.83 23.33L24.51 23.33L24.05 22.88C25.68 20.98 26.66 18.51 26.66 15.83C26.66 9.85 21.81 5 15.83 5C9.84 5 5 9.85 5 15.83C5 21.81 9.84 26.66 15.83 26.66C18.51 26.66 20.98 25.68 22.88 24.05L23.33 24.51L23.33 25.83L31.66 34.15L34.15 31.66L25.83 23.33ZM15.83 23.33C11.68 23.33 8.33 19.98 8.33 15.83C8.33 11.68 11.68 8.33 15.83 8.33C19.98 8.33 23.33 11.68 23.33 15.83C23.33 19.98 19.98 23.33 15.83 23.33Z" fill="#FFFFFF" fill-opacity="1.000000" fill-rule="evenodd"/>
	</g>
</svg>
